<svg width="181" height="47" viewBox="0 0 181 47" fill="none" xmlns="http://www.w3.org/2000/svg">
<path d="M0.24 23.6C0.24 19.2053 1.22133 15.28 3.184 11.824C5.18933 8.32533 7.89867 5.616 11.312 3.696C14.768 1.73333 18.6293 0.751999 22.896 0.751999C27.888 0.751999 32.2613 2.032 36.016 4.592C39.7707 7.152 42.3947 10.6933 43.888 15.216H33.584C32.56 13.0827 31.1093 11.4827 29.232 10.416C27.3973 9.34933 25.264 8.816 22.832 8.816C20.2293 8.816 17.904 9.43466 15.856 10.672C13.8507 11.8667 12.272 13.5733 11.12 15.792C10.0107 18.0107 9.456 20.6133 9.456 23.6C9.456 26.544 10.0107 29.1467 11.12 31.408C12.272 33.6267 13.8507 35.3547 15.856 36.592C17.904 37.7867 20.2293 38.384 22.832 38.384C25.264 38.384 27.3973 37.8507 29.232 36.784C31.1093 35.6747 32.56 34.0533 33.584 31.92H43.888C42.3947 36.4853 39.7707 40.048 36.016 42.608C32.304 45.1253 27.9307 46.384 22.896 46.384C18.6293 46.384 14.768 45.424 11.312 43.504C7.89867 41.5413 5.18933 38.832 3.184 35.376C1.22133 31.92 0.24 27.9947 0.24 23.6ZM60.501 16.048C61.653 14.1707 63.1463 12.6987 64.981 11.632C66.8583 10.5653 68.9917 10.032 71.381 10.032V19.44H69.013C66.197 19.44 64.0637 20.1013 62.613 21.424C61.205 22.7467 60.501 25.0507 60.501 28.336V46H51.541V10.544H60.501V16.048ZM110.376 27.504C110.376 28.784 110.291 29.936 110.12 30.96H84.2C84.4133 33.52 85.3093 35.5253 86.888 36.976C88.4667 38.4267 90.408 39.152 92.712 39.152C96.04 39.152 98.408 37.7227 99.816 34.864H109.48C108.456 38.2773 106.493 41.0933 103.592 43.312C100.691 45.488 97.128 46.576 92.904 46.576C89.4907 46.576 86.4187 45.8293 83.688 44.336C81 42.8 78.888 40.6453 77.352 37.872C75.8587 35.0987 75.112 31.8987 75.112 28.272C75.112 24.6027 75.8587 21.3813 77.352 18.608C78.8453 15.8347 80.936 13.7013 83.624 12.208C86.312 10.7147 89.4053 9.968 92.904 9.968C96.2747 9.968 99.2827 10.6933 101.928 12.144C104.616 13.5947 106.685 15.664 108.136 18.352C109.629 20.9973 110.376 24.048 110.376 27.504ZM101.096 24.944C101.053 22.64 100.221 20.8053 98.6 19.44C96.9787 18.032 94.9947 17.328 92.648 17.328C90.4293 17.328 88.552 18.0107 87.016 19.376C85.5227 20.6987 84.6053 22.5547 84.264 24.944H101.096ZM114.612 28.144C114.612 24.56 115.316 21.3813 116.724 18.608C118.175 15.8347 120.116 13.7013 122.548 12.208C125.023 10.7147 127.775 9.968 130.804 9.968C133.449 9.968 135.753 10.5013 137.716 11.568C139.721 12.6347 141.321 13.9787 142.516 15.6V10.544H151.54V46H142.516V40.816C141.364 42.48 139.764 43.8667 137.716 44.976C135.711 46.0427 133.385 46.576 130.74 46.576C127.753 46.576 125.023 45.808 122.548 44.272C120.116 42.736 118.175 40.5813 116.724 37.808C115.316 34.992 114.612 31.7707 114.612 28.144ZM142.516 28.272C142.516 26.096 142.089 24.24 141.236 22.704C140.383 21.1253 139.231 19.9307 137.78 19.12C136.329 18.2667 134.772 17.84 133.108 17.84C131.444 17.84 129.908 18.2453 128.5 19.056C127.092 19.8667 125.94 21.0613 125.044 22.64C124.191 24.176 123.764 26.0107 123.764 28.144C123.764 30.2773 124.191 32.1547 125.044 33.776C125.94 35.3547 127.092 36.5707 128.5 37.424C129.951 38.2773 131.487 38.704 133.108 38.704C134.772 38.704 136.329 38.2987 137.78 37.488C139.231 36.6347 140.383 35.44 141.236 33.904C142.089 32.3253 142.516 30.448 142.516 28.272ZM169.251 16.048C170.403 14.1707 171.896 12.6987 173.731 11.632C175.608 10.5653 177.742 10.032 180.131 10.032V19.44H177.763C174.947 19.44 172.814 20.1013 171.363 21.424C169.955 22.7467 169.251 25.0507 169.251 28.336V46H160.291V10.544H169.251V16.048Z" fill="#CDDBFF"/>
</svg>
