<svg width="203" height="31" viewBox="0 0 203 31" fill="none" xmlns="http://www.w3.org/2000/svg">
<rect y="0.449219" width="39" height="30" rx="8" fill="black"/>
<path fill-rule="evenodd" clip-rule="evenodd" d="M6 14.0566C6 13.6413 6.31146 13.3047 6.69566 13.3047H8.31886C8.51096 13.3047 8.66668 13.473 8.66668 13.6806V20.0716C8.66668 20.2792 8.51096 20.4475 8.31886 20.4475H6.69566C6.31146 20.4475 6 20.1109 6 19.6956V14.0566ZM7.97103 14.0566H6.69566V19.6956H7.97103V14.0566Z" fill="white"/>
<path fill-rule="evenodd" clip-rule="evenodd" d="M11.6946 13.6806C11.6946 13.473 11.8614 13.3047 12.0671 13.3047H14.8821C15.5728 13.3047 16.0981 13.9305 15.9846 14.6179L15.2292 19.191C15.1095 19.9161 14.4878 20.4475 13.7593 20.4475H10.4072C10.0394 20.4475 9.67985 20.3377 9.37386 20.1318L8.1659 19.3192C8.06226 19.2495 8 19.1321 8 19.0064V14.7458C8 14.5382 8.1668 14.3698 8.37256 14.3698C8.57832 14.3698 8.74512 14.5382 8.74512 14.7458V18.8052L9.78717 19.5062C9.97077 19.6297 10.1865 19.6956 10.4072 19.6956H13.7593C14.1235 19.6956 14.4344 19.4299 14.4943 19.0674L15.2496 14.4943C15.2874 14.2652 15.1123 14.0566 14.8821 14.0566H12.0671C11.8614 14.0566 11.6946 13.8883 11.6946 13.6806Z" fill="white"/>
<path fill-rule="evenodd" clip-rule="evenodd" d="M10.2345 11.2203C10.5202 10.5996 11.1826 10.3015 11.7887 10.521C12.4029 10.7434 12.7686 11.4278 12.6416 12.1175L12.2905 14.0243C12.2515 14.2365 12.0615 14.3741 11.8662 14.3316C11.6709 14.2892 11.5442 14.0828 11.5833 13.8707L11.9343 11.9638C11.99 11.6616 11.8298 11.3617 11.5606 11.2643C11.2951 11.1681 11.0048 11.2987 10.8796 11.5707L9.19409 15.2326C9.133 15.3654 9.00813 15.4492 8.87153 15.4492H8.36063C8.16146 15.4492 8 15.2738 8 15.0575C8 14.8411 8.16146 14.6657 8.36063 14.6657H8.64864L10.2345 11.2203Z" fill="white"/>
<path d="M22.456 11.7692V10.7732H24.712V19.4492H23.608V11.7692H22.456ZM26.4558 18.5732C27.4718 17.7572 28.2678 17.0892 28.8438 16.5692C29.4198 16.0412 29.9038 15.4932 30.2958 14.9252C30.6958 14.3492 30.8958 13.7852 30.8958 13.2332C30.8958 12.7132 30.7678 12.3052 30.5118 12.0092C30.2638 11.7052 29.8598 11.5532 29.2998 11.5532C28.7558 11.5532 28.3318 11.7252 28.0278 12.0692C27.7318 12.4052 27.5718 12.8572 27.5478 13.4252H26.4918C26.5238 12.5292 26.7958 11.8372 27.3078 11.3492C27.8198 10.8612 28.4798 10.6172 29.2878 10.6172C30.1118 10.6172 30.7638 10.8452 31.2438 11.3012C31.7318 11.7572 31.9758 12.3852 31.9758 13.1852C31.9758 13.8492 31.7758 14.4972 31.3758 15.1292C30.9838 15.7532 30.5358 16.3052 30.0318 16.7852C29.5278 17.2572 28.8838 17.8092 28.0998 18.4412H32.2278V19.3532H26.4558V18.5732Z" fill="#C5CDD7"/>
<rect x="55" y="0.449219" width="36" height="30" rx="8" fill="black"/>
<g clip-path="url(#clip0_1374_1162)">
<path d="M63.5332 17.4159H63.3261L63.1796 17.5623L62.1665 18.5754V11.3826C62.1665 11.1454 62.3626 10.9492 62.5998 10.9492H70.0665C70.3037 10.9492 70.4998 11.1454 70.4998 11.3826V16.9826C70.4998 17.2197 70.3037 17.4159 70.0665 17.4159H63.5332Z" stroke="white"/>
</g>
<path d="M83.276 11.7212H79.064V14.4572C79.248 14.2012 79.52 13.9932 79.88 13.8332C80.24 13.6652 80.628 13.5812 81.044 13.5812C81.708 13.5812 82.248 13.7212 82.664 14.0012C83.08 14.2732 83.376 14.6292 83.552 15.0692C83.736 15.5012 83.828 15.9612 83.828 16.4492C83.828 17.0252 83.72 17.5412 83.504 17.9972C83.288 18.4532 82.956 18.8132 82.508 19.0772C82.068 19.3412 81.52 19.4732 80.864 19.4732C80.024 19.4732 79.344 19.2572 78.824 18.8252C78.304 18.3932 77.988 17.8172 77.876 17.0972H78.944C79.048 17.5532 79.268 17.9092 79.604 18.1652C79.94 18.4212 80.364 18.5492 80.876 18.5492C81.508 18.5492 81.984 18.3612 82.304 17.9852C82.624 17.6012 82.784 17.0972 82.784 16.4732C82.784 15.8492 82.624 15.3692 82.304 15.0332C81.984 14.6892 81.512 14.5172 80.888 14.5172C80.464 14.5172 80.092 14.6212 79.772 14.8292C79.46 15.0292 79.232 15.3052 79.088 15.6572H78.056V10.7612H83.276V11.7212Z" fill="#C5CDD7"/>
<rect x="107" y="0.449219" width="44" height="30" rx="8" fill="black"/>
<path fill-rule="evenodd" clip-rule="evenodd" d="M118 11.2184C115.663 11.2184 113.769 13.1126 113.769 15.4492C113.769 17.7858 115.663 19.68 118 19.68C120.337 19.68 122.231 17.7858 122.231 15.4492C122.231 13.1126 120.337 11.2184 118 11.2184ZM113 15.4492C113 12.6878 115.239 10.4492 118 10.4492C120.761 10.4492 123 12.6878 123 15.4492C123 18.2106 120.761 20.4492 118 20.4492C115.239 20.4492 113 18.2106 113 15.4492Z" fill="white"/>
<path d="M117.616 14.2966C117.616 14.7214 117.271 15.0658 116.846 15.0658C116.422 15.0658 116.077 14.7214 116.077 14.2966C116.077 13.8717 116.422 13.5273 116.846 13.5273C117.271 13.5273 117.616 13.8717 117.616 14.2966Z" fill="white"/>
<path d="M119.923 14.2966C119.923 14.7214 119.579 15.0658 119.154 15.0658C118.729 15.0658 118.385 14.7214 118.385 14.2966C118.385 13.8717 118.729 13.5273 119.154 13.5273C119.579 13.5273 119.923 13.8717 119.923 14.2966Z" fill="white"/>
<path fill-rule="evenodd" clip-rule="evenodd" d="M120.603 16.7362C120.74 16.8943 120.717 17.1284 120.552 17.2592C119.834 17.8285 118.932 18.14 118 18.14C117.068 18.14 116.166 17.8285 115.448 17.2592C115.283 17.1284 115.26 16.8943 115.397 16.7362C115.533 16.5782 115.777 16.5561 115.942 16.6868C116.521 17.1459 117.249 17.3971 118 17.3971C118.751 17.3971 119.479 17.1459 120.058 16.6868C120.223 16.5561 120.467 16.5782 120.603 16.7362Z" fill="white"/>
<path d="M134.58 12.8372C134.404 11.9492 133.856 11.5052 132.936 11.5052C132.224 11.5052 131.692 11.7812 131.34 12.3332C130.988 12.8772 130.816 13.7772 130.824 15.0332C131.008 14.6172 131.312 14.2932 131.736 14.0612C132.168 13.8212 132.648 13.7012 133.176 13.7012C134 13.7012 134.656 13.9572 135.144 14.4692C135.64 14.9812 135.888 15.6892 135.888 16.5932C135.888 17.1372 135.78 17.6252 135.564 18.0572C135.356 18.4892 135.036 18.8332 134.604 19.0892C134.18 19.3452 133.664 19.4732 133.056 19.4732C132.232 19.4732 131.588 19.2892 131.124 18.9212C130.66 18.5532 130.336 18.0452 130.152 17.3972C129.968 16.7492 129.876 15.9492 129.876 14.9972C129.876 12.0612 130.9 10.5932 132.948 10.5932C133.732 10.5932 134.348 10.8052 134.796 11.2292C135.244 11.6532 135.508 12.1892 135.588 12.8372H134.58ZM132.948 14.6252C132.604 14.6252 132.28 14.6972 131.976 14.8412C131.672 14.9772 131.424 15.1892 131.232 15.4772C131.048 15.7572 130.956 16.1012 130.956 16.5092C130.956 17.1172 131.132 17.6132 131.484 17.9972C131.836 18.3732 132.34 18.5612 132.996 18.5612C133.556 18.5612 134 18.3892 134.328 18.0452C134.664 17.6932 134.832 17.2212 134.832 16.6292C134.832 16.0052 134.672 15.5172 134.352 15.1652C134.032 14.8052 133.564 14.6252 132.948 14.6252ZM142.893 11.7212H138.681V14.4572C138.865 14.2012 139.137 13.9932 139.497 13.8332C139.857 13.6652 140.245 13.5812 140.661 13.5812C141.325 13.5812 141.865 13.7212 142.281 14.0012C142.697 14.2732 142.993 14.6292 143.169 15.0692C143.353 15.5012 143.445 15.9612 143.445 16.4492C143.445 17.0252 143.337 17.5412 143.121 17.9972C142.905 18.4532 142.573 18.8132 142.125 19.0772C141.685 19.3412 141.137 19.4732 140.481 19.4732C139.641 19.4732 138.961 19.2572 138.441 18.8252C137.921 18.3932 137.605 17.8172 137.493 17.0972H138.561C138.665 17.5532 138.885 17.9092 139.221 18.1652C139.557 18.4212 139.981 18.5492 140.493 18.5492C141.125 18.5492 141.601 18.3612 141.921 17.9852C142.241 17.6012 142.401 17.0972 142.401 16.4732C142.401 15.8492 142.241 15.3692 141.921 15.0332C141.601 14.6892 141.129 14.5172 140.505 14.5172C140.081 14.5172 139.709 14.6212 139.389 14.8292C139.077 15.0292 138.849 15.3052 138.705 15.6572H137.673V10.7612H142.893V11.7212Z" fill="#C5CDD7"/>
<rect x="167" y="0.449219" width="36" height="30" rx="8" fill="black"/>
<path d="M177.084 15.1468L176.417 14.7465V11.7812H177.084V15.1468ZM178.917 15.1452V11.7812H179.584V14.7448L178.917 15.1452ZM177.911 17.3677L178.003 17.1491L178.094 17.3636L178.211 17.6412L178.512 17.6669L178.751 17.6874L178.569 17.8446L178.34 18.0423L178.409 18.3368L178.465 18.573L178.258 18.4487L177.999 18.2928L177.741 18.4497L177.537 18.5735L177.591 18.341L177.66 18.0465L177.431 17.8487L177.25 17.6919L177.493 17.6711L177.793 17.6454L177.911 17.3677Z" stroke="white"/>
<path d="M189.72 12.9572C189.776 12.2212 190.06 11.6452 190.572 11.2292C191.084 10.8132 191.748 10.6052 192.564 10.6052C193.108 10.6052 193.576 10.7052 193.968 10.9052C194.368 11.0972 194.668 11.3612 194.868 11.6972C195.076 12.0332 195.18 12.4132 195.18 12.8372C195.18 13.3332 195.036 13.7612 194.748 14.1212C194.468 14.4812 194.1 14.7132 193.644 14.8172V14.8772C194.164 15.0052 194.576 15.2572 194.88 15.6332C195.184 16.0092 195.336 16.5012 195.336 17.1092C195.336 17.5652 195.232 17.9772 195.024 18.3452C194.816 18.7052 194.504 18.9892 194.088 19.1972C193.672 19.4052 193.172 19.5092 192.588 19.5092C191.74 19.5092 191.044 19.2892 190.5 18.8492C189.956 18.4012 189.652 17.7692 189.588 16.9532H190.644C190.7 17.4332 190.896 17.8252 191.232 18.1292C191.568 18.4332 192.016 18.5852 192.576 18.5852C193.136 18.5852 193.56 18.4412 193.848 18.1532C194.144 17.8572 194.292 17.4772 194.292 17.0132C194.292 16.4132 194.092 15.9812 193.692 15.7172C193.292 15.4532 192.688 15.3212 191.88 15.3212H191.604V14.4092H191.892C192.628 14.4012 193.184 14.2812 193.56 14.0492C193.936 13.8092 194.124 13.4412 194.124 12.9452C194.124 12.5212 193.984 12.1812 193.704 11.9252C193.432 11.6692 193.04 11.5412 192.528 11.5412C192.032 11.5412 191.632 11.6692 191.328 11.9252C191.024 12.1812 190.844 12.5252 190.788 12.9572H189.72Z" fill="#C5CDD7"/>
<defs>
<clipPath id="clip0_1374_1162">
<rect width="10" height="10" fill="white" transform="translate(61 10.4492)"/>
</clipPath>
</defs>
</svg>
