<svg width="91" height="30" viewBox="0 0 91 30" fill="none" xmlns="http://www.w3.org/2000/svg">
<rect width="39" height="30" rx="8" fill="#2B2B2B"/>
<path fill-rule="evenodd" clip-rule="evenodd" d="M6 13.6073C6 13.1921 6.31146 12.8555 6.69566 12.8555H8.31886C8.51096 12.8555 8.66668 13.0238 8.66668 13.2314V19.6224C8.66668 19.83 8.51096 19.9983 8.31886 19.9983H6.69566C6.31146 19.9983 6 19.6617 6 19.2464V13.6073ZM7.97103 13.6073H6.69566V19.2464H7.97103V13.6073Z" fill="white"/>
<path fill-rule="evenodd" clip-rule="evenodd" d="M11.6945 13.2314C11.6945 13.0238 11.8613 12.8555 12.0671 12.8555H14.882C15.5727 12.8555 16.0981 13.4813 15.9845 14.1687L15.2292 18.7418C15.1094 19.4669 14.4877 19.9983 13.7592 19.9983H10.4071C10.0393 19.9983 9.6798 19.8885 9.3738 19.6826L8.16585 18.87C8.0622 18.8003 7.99995 18.6829 7.99995 18.5572V14.2966C7.99995 14.0889 8.16675 13.9206 8.37251 13.9206C8.57827 13.9206 8.74507 14.0889 8.74507 14.2966V18.356L9.78712 19.057C9.97072 19.1805 10.1864 19.2464 10.4071 19.2464H13.7592C14.1235 19.2464 14.4343 18.9807 14.4942 18.6182L15.2495 14.0451C15.2874 13.8159 15.1123 13.6073 14.882 13.6073H12.0671C11.8613 13.6073 11.6945 13.439 11.6945 13.2314Z" fill="white"/>
<path fill-rule="evenodd" clip-rule="evenodd" d="M10.2344 10.7711C10.5202 10.1504 11.1826 9.85231 11.7887 10.0718C12.4029 10.2942 12.7685 10.9786 12.6415 11.6683L12.2905 13.5751C12.2514 13.7873 12.0614 13.9248 11.8661 13.8824C11.6708 13.84 11.5442 13.6336 11.5832 13.4214L11.9343 11.5146C11.9899 11.2124 11.8297 10.9125 11.5606 10.8151C11.295 10.7189 11.0047 10.8495 10.8796 11.1215L9.19403 14.7834C9.13295 14.9161 9.00807 15 8.87148 15H8.36058C8.16141 15 7.99995 14.8246 7.99995 14.6082C7.99995 14.3919 8.16141 14.2165 8.36058 14.2165H8.64859L10.2344 10.7711Z" fill="white"/>
<path d="M22.456 11.32V10.324H24.712V19H23.608V11.32H22.456ZM26.4558 18.124C27.4718 17.308 28.2678 16.64 28.8438 16.12C29.4198 15.592 29.9038 15.044 30.2958 14.476C30.6958 13.9 30.8958 13.336 30.8958 12.784C30.8958 12.264 30.7678 11.856 30.5118 11.56C30.2638 11.256 29.8598 11.104 29.2998 11.104C28.7558 11.104 28.3318 11.276 28.0278 11.62C27.7318 11.956 27.5718 12.408 27.5478 12.976H26.4918C26.5238 12.08 26.7958 11.388 27.3078 10.9C27.8198 10.412 28.4798 10.168 29.2878 10.168C30.1118 10.168 30.7638 10.396 31.2438 10.852C31.7318 11.308 31.9758 11.936 31.9758 12.736C31.9758 13.4 31.7758 14.048 31.3758 14.68C30.9838 15.304 30.5358 15.856 30.0318 16.336C29.5278 16.808 28.8838 17.36 28.0998 17.992H32.2278V18.904H26.4558V18.124Z" fill="#C5CDD7"/>
<rect x="55" width="36" height="30" rx="8" fill="#2B2B2B"/>
<path fill-rule="evenodd" clip-rule="evenodd" d="M66 10.7692C63.6634 10.7692 61.7692 12.6634 61.7692 15C61.7692 17.3366 63.6634 19.2308 66 19.2308C68.3366 19.2308 70.2308 17.3366 70.2308 15C70.2308 12.6634 68.3366 10.7692 66 10.7692ZM61 15C61 12.2386 63.2386 10 66 10C68.7614 10 71 12.2386 71 15C71 17.7614 68.7614 20 66 20C63.2386 20 61 17.7614 61 15Z" fill="white"/>
<path d="M65.6154 13.8474C65.6154 14.2722 65.271 14.6166 64.8462 14.6166C64.4213 14.6166 64.0769 14.2722 64.0769 13.8474C64.0769 13.4225 64.4213 13.0781 64.8462 13.0781C65.271 13.0781 65.6154 13.4225 65.6154 13.8474Z" fill="white"/>
<path d="M67.9231 13.8474C67.9231 14.2722 67.5787 14.6166 67.1538 14.6166C66.729 14.6166 66.3846 14.2722 66.3846 13.8474C66.3846 13.4225 66.729 13.0781 67.1538 13.0781C67.5787 13.0781 67.9231 13.4225 67.9231 13.8474Z" fill="white"/>
<path fill-rule="evenodd" clip-rule="evenodd" d="M68.6034 16.287C68.7398 16.4451 68.7167 16.6792 68.5518 16.81C67.834 17.3793 66.9316 17.6908 66 17.6908C65.0684 17.6908 64.166 17.3793 63.4482 16.81C63.2833 16.6792 63.2602 16.4451 63.3966 16.287C63.533 16.129 63.7772 16.1068 63.9421 16.2376C64.521 16.6967 65.2487 16.9479 66 16.9479C66.7513 16.9479 67.4791 16.6967 68.0579 16.2376C68.2228 16.1068 68.467 16.129 68.6034 16.287Z" fill="white"/>
<path d="M77.72 12.508C77.776 11.772 78.06 11.196 78.572 10.78C79.084 10.364 79.748 10.156 80.564 10.156C81.108 10.156 81.576 10.256 81.968 10.456C82.368 10.648 82.668 10.912 82.868 11.248C83.076 11.584 83.18 11.964 83.18 12.388C83.18 12.884 83.036 13.312 82.748 13.672C82.468 14.032 82.1 14.264 81.644 14.368V14.428C82.164 14.556 82.576 14.808 82.88 15.184C83.184 15.56 83.336 16.052 83.336 16.66C83.336 17.116 83.232 17.528 83.024 17.896C82.816 18.256 82.504 18.54 82.088 18.748C81.672 18.956 81.172 19.06 80.588 19.06C79.74 19.06 79.044 18.84 78.5 18.4C77.956 17.952 77.652 17.32 77.588 16.504H78.644C78.7 16.984 78.896 17.376 79.232 17.68C79.568 17.984 80.016 18.136 80.576 18.136C81.136 18.136 81.56 17.992 81.848 17.704C82.144 17.408 82.292 17.028 82.292 16.564C82.292 15.964 82.092 15.532 81.692 15.268C81.292 15.004 80.688 14.872 79.88 14.872H79.604V13.96H79.892C80.628 13.952 81.184 13.832 81.56 13.6C81.936 13.36 82.124 12.992 82.124 12.496C82.124 12.072 81.984 11.732 81.704 11.476C81.432 11.22 81.04 11.092 80.528 11.092C80.032 11.092 79.632 11.22 79.328 11.476C79.024 11.732 78.844 12.076 78.788 12.508H77.72Z" fill="#C5CDD7"/>
</svg>
