<svg width="19" height="23" viewBox="0 0 19 23" fill="none" xmlns="http://www.w3.org/2000/svg">
<path fill-rule="evenodd" clip-rule="evenodd" d="M9.5 1.8492C7.17659 1.8492 5.2931 3.78188 5.2931 6.16596C5.2931 8.55005 7.17659 10.4827 9.5 10.4827C11.8234 10.4827 13.7069 8.55005 13.7069 6.16596C13.7069 3.78188 11.8234 1.8492 9.5 1.8492ZM4.46552 6.16596C4.46552 3.31288 6.71953 1 9.5 1C12.2805 1 14.5345 3.31288 14.5345 6.16596C14.5345 9.01905 12.2805 11.3319 9.5 11.3319C6.71953 11.3319 4.46552 9.01905 4.46552 6.16596ZM7.18965 14.888C4.22827 14.888 1.82759 17.3513 1.82759 20.3901V21.5754C1.82759 21.8099 1.64232 22 1.41379 22C1.18526 22 1 21.8099 1 21.5754V20.3901C1 16.8823 3.7712 14.0388 7.18965 14.0388H11.8103C15.2288 14.0388 18 16.8823 18 20.3901V21.5754C18 21.8099 17.8147 22 17.5862 22C17.3577 22 17.1724 21.8099 17.1724 21.5754V20.3901C17.1724 17.3513 14.7717 14.888 11.8103 14.888H7.18965Z" fill="white" stroke="white" stroke-linecap="round" stroke-linejoin="round"/>
</svg>
