<svg width="22" height="22" viewBox="0 0 22 22" fill="none" xmlns="http://www.w3.org/2000/svg">
<path fill-rule="evenodd" clip-rule="evenodd" d="M9.16668 3.98534C6.3052 3.98534 3.98552 6.30502 3.98552 9.1665C3.98552 12.028 6.3052 14.3477 9.16668 14.3477C12.0282 14.3477 14.3478 12.028 14.3478 9.1665C14.3478 6.30502 12.0282 3.98534 9.16668 3.98534ZM3.34784 9.1665C3.34784 5.95284 5.95302 3.34766 9.16668 3.34766C12.3803 3.34766 14.9855 5.95284 14.9855 9.1665C14.9855 12.3802 12.3803 14.9853 9.16668 14.9853C5.95302 14.9853 3.34784 12.3802 3.34784 9.1665Z" fill="#F3F3F3" stroke="#F3F3F3" stroke-linecap="round" stroke-linejoin="round"/>
<path fill-rule="evenodd" clip-rule="evenodd" d="M13.0662 13.066C13.1907 12.9415 13.3926 12.9415 13.5171 13.066L17.6421 17.191C17.7667 17.3156 17.7667 17.5174 17.6421 17.642C17.5176 17.7665 17.3157 17.7665 17.1912 17.642L13.0662 13.517C12.9417 13.3924 12.9417 13.1906 13.0662 13.066Z" fill="#F3F3F3" stroke="#F3F3F3" stroke-linecap="round" stroke-linejoin="round"/>
</svg>
