<svg width="183" height="48" viewBox="0 0 183 48" fill="none" xmlns="http://www.w3.org/2000/svg">
<path d="M28.6552 40C25.2881 40 22.2392 38.1483 20.7 35.1605C20.6334 35.035 20.5742 34.9096 20.5149 34.7842C19.9747 33.6112 18.9461 32.7333 17.6955 32.3866C17.3107 32.2833 16.9184 32.2317 16.5336 32.2317C15.653 32.2317 14.7798 32.4972 14.0398 33.0063C13.7142 33.2276 13.3737 33.4342 13.0185 33.6186C11.7605 34.2604 10.3471 34.6072 8.94102 34.6072C5.57392 34.6072 2.52503 32.7554 0.985786 29.7676C-1.26388 25.4002 0.467771 20.0221 4.8487 17.772C6.10673 17.1302 7.52017 16.7835 8.92621 16.7835C12.2933 16.7835 15.3422 18.6352 16.8814 21.623C16.948 21.7484 17.0072 21.8738 17.0665 21.9993C17.6067 23.1723 18.6353 24.0502 19.8859 24.3969C20.2707 24.5002 20.663 24.5518 21.0478 24.5518C21.9284 24.5518 22.8016 24.2862 23.5416 23.7772C23.8672 23.5559 24.2077 23.3493 24.5629 23.1649C25.8801 22.4862 26.7755 21.1951 26.9235 19.7197C27.0715 18.2516 26.4721 16.7982 25.3177 15.8687C24.3409 15.0867 23.549 14.1129 22.9718 12.9841C20.7222 8.61675 22.4538 3.23866 26.8347 0.988565C28.0928 0.346736 29.5062 0 30.9123 0C34.2793 0 37.3282 1.85172 38.8675 4.83954C38.9267 4.96496 38.9933 5.083 39.0451 5.20841C39.5853 6.39616 40.6287 7.28145 41.8868 7.6208C42.2642 7.72409 42.649 7.77573 43.0338 7.77573C43.9292 7.77573 44.8099 7.50277 45.5573 6.97898C45.8607 6.76503 46.1863 6.56584 46.5415 6.38879C47.7995 5.74696 49.213 5.40022 50.619 5.40022C53.9861 5.40022 57.035 7.25194 58.5742 10.2398C60.8239 14.6072 59.0923 19.9852 54.7113 22.2353C53.4533 22.8772 52.0399 23.2239 50.6338 23.2239C47.2667 23.2239 44.2178 21.3722 42.6786 18.3844C42.6194 18.2663 42.5528 18.1335 42.4936 18.0007C41.9534 16.8277 40.9173 15.9498 39.6667 15.6031C39.2819 15.4998 38.8971 15.4482 38.5049 15.4482C37.6242 15.4482 36.751 15.7138 36.011 16.2228C35.6928 16.4441 35.345 16.6507 34.9972 16.8277C33.6799 17.5065 32.7919 18.8049 32.6365 20.273C32.4885 21.7411 33.0879 23.1944 34.2423 24.1166C35.2192 24.8986 36.011 25.8724 36.5882 27.0011C38.8379 31.3685 37.1062 36.7466 32.7253 38.9893C31.4673 39.6311 30.0538 39.9779 28.6478 39.9779L28.6552 40Z" fill="white"/>
<path d="M28.6552 40C25.2881 40 22.2392 38.1483 20.7 35.1605C20.6334 35.035 20.5742 34.9096 20.5149 34.7842C19.9747 33.6112 18.9461 32.7333 17.6955 32.3866C17.3107 32.2833 16.9184 32.2317 16.5336 32.2317C15.653 32.2317 14.7798 32.4972 14.0398 33.0063C13.7142 33.2276 13.3737 33.4342 13.0185 33.6186C11.7605 34.2604 10.3471 34.6072 8.94102 34.6072C5.57392 34.6072 2.52503 32.7554 0.985786 29.7676C-1.26388 25.4002 0.467771 20.0221 4.8487 17.772C6.10673 17.1302 7.52017 16.7835 8.92621 16.7835C12.2933 16.7835 15.3422 18.6352 16.8814 21.623C16.948 21.7484 17.0072 21.8738 17.0665 21.9993C17.6067 23.1723 18.6353 24.0502 19.8859 24.3969C20.2707 24.5002 20.663 24.5518 21.0478 24.5518C21.9284 24.5518 22.8016 24.2862 23.5416 23.7772C23.8672 23.5559 24.2077 23.3493 24.5629 23.1649C25.8801 22.4862 26.7755 21.1951 26.9235 19.7197C27.0715 18.2516 26.4721 16.7982 25.3177 15.8687C24.3409 15.0867 23.549 14.1129 22.9718 12.9841C20.7222 8.61675 22.4538 3.23866 26.8347 0.988565C28.0928 0.346736 29.5062 0 30.9123 0C34.2793 0 37.3282 1.85172 38.8675 4.83954C38.9267 4.96496 38.9933 5.083 39.0451 5.20841C39.5853 6.39616 40.6287 7.28145 41.8868 7.6208C42.2642 7.72409 42.649 7.77573 43.0338 7.77573C43.9292 7.77573 44.8099 7.50277 45.5573 6.97898C45.8607 6.76503 46.1863 6.56584 46.5415 6.38879C47.7995 5.74696 49.213 5.40022 50.619 5.40022C53.9861 5.40022 57.035 7.25194 58.5742 10.2398C60.8239 14.6072 59.0923 19.9852 54.7113 22.2353C53.4533 22.8772 52.0399 23.2239 50.6338 23.2239C47.2667 23.2239 44.2178 21.3722 42.6786 18.3844C42.6194 18.2663 42.5528 18.1335 42.4936 18.0007C41.9534 16.8277 40.9173 15.9498 39.6667 15.6031C39.2819 15.4998 38.8971 15.4482 38.5049 15.4482C37.6242 15.4482 36.751 15.7138 36.011 16.2228C35.6928 16.4441 35.345 16.6507 34.9972 16.8277C33.6799 17.5065 32.7919 18.8049 32.6365 20.273C32.4885 21.7411 33.0879 23.1944 34.2423 24.1166C35.2192 24.8986 36.011 25.8724 36.5882 27.0011C38.8379 31.3685 37.1062 36.7466 32.7253 38.9893C31.4673 39.6311 30.0538 39.9779 28.6478 39.9779L28.6552 40Z" fill="white"/>
<path d="M28.6552 40C25.2881 40 22.2392 38.1483 20.7 35.1605C20.6334 35.035 20.5742 34.9096 20.5149 34.7842C19.9747 33.6112 18.9461 32.7333 17.6955 32.3866C17.3107 32.2833 16.9184 32.2317 16.5336 32.2317C15.653 32.2317 14.7798 32.4972 14.0398 33.0063C13.7142 33.2276 13.3737 33.4342 13.0185 33.6186C11.7605 34.2604 10.3471 34.6072 8.94102 34.6072C5.57392 34.6072 2.52503 32.7554 0.985786 29.7676C-1.26388 25.4002 0.467771 20.0221 4.8487 17.772C6.10673 17.1302 7.52017 16.7835 8.92621 16.7835C12.2933 16.7835 15.3422 18.6352 16.8814 21.623C16.948 21.7484 17.0072 21.8738 17.0665 21.9993C17.6067 23.1723 18.6353 24.0502 19.8859 24.3969C20.2707 24.5002 20.663 24.5518 21.0478 24.5518C21.9284 24.5518 22.8016 24.2862 23.5416 23.7772C23.8672 23.5559 24.2077 23.3493 24.5629 23.1649C25.8801 22.4862 26.7755 21.1951 26.9235 19.7197C27.0715 18.2516 26.4721 16.7982 25.3177 15.8687C24.3409 15.0867 23.549 14.1129 22.9718 12.9841C20.7222 8.61675 22.4538 3.23866 26.8347 0.988565C28.0928 0.346736 29.5062 0 30.9123 0C34.2793 0 37.3282 1.85172 38.8675 4.83954C38.9267 4.96496 38.9933 5.083 39.0451 5.20841C39.5853 6.39616 40.6287 7.28145 41.8868 7.6208C42.2642 7.72409 42.649 7.77573 43.0338 7.77573C43.9292 7.77573 44.8099 7.50277 45.5573 6.97898C45.8607 6.76503 46.1863 6.56584 46.5415 6.38879C47.7995 5.74696 49.213 5.40022 50.619 5.40022C53.9861 5.40022 57.035 7.25194 58.5742 10.2398C60.8239 14.6072 59.0923 19.9852 54.7113 22.2353C53.4533 22.8772 52.0399 23.2239 50.6338 23.2239C47.2667 23.2239 44.2178 21.3722 42.6786 18.3844C42.6194 18.2663 42.5528 18.1335 42.4936 18.0007C41.9534 16.8277 40.9173 15.9498 39.6667 15.6031C39.2819 15.4998 38.8971 15.4482 38.5049 15.4482C37.6242 15.4482 36.751 15.7138 36.011 16.2228C35.6928 16.4441 35.345 16.6507 34.9972 16.8277C33.6799 17.5065 32.7919 18.8049 32.6365 20.273C32.4885 21.7411 33.0879 23.1944 34.2423 24.1166C35.2192 24.8986 36.011 25.8724 36.5882 27.0011C38.8379 31.3685 37.1062 36.7466 32.7253 38.9893C31.4673 39.6311 30.0538 39.9779 28.6478 39.9779L28.6552 40Z" fill="white"/>
<path d="M28.6552 40C25.2881 40 22.2392 38.1483 20.7 35.1605C20.6334 35.035 20.5742 34.9096 20.5149 34.7842C19.9747 33.6112 18.9461 32.7333 17.6955 32.3866C17.3107 32.2833 16.9184 32.2317 16.5336 32.2317C15.653 32.2317 14.7798 32.4972 14.0398 33.0063C13.7142 33.2276 13.3737 33.4342 13.0185 33.6186C11.7605 34.2604 10.3471 34.6072 8.94102 34.6072C5.57392 34.6072 2.52503 32.7554 0.985786 29.7676C-1.26388 25.4002 0.467771 20.0221 4.8487 17.772C6.10673 17.1302 7.52017 16.7835 8.92621 16.7835C12.2933 16.7835 15.3422 18.6352 16.8814 21.623C16.948 21.7484 17.0072 21.8738 17.0665 21.9993C17.6067 23.1723 18.6353 24.0502 19.8859 24.3969C20.2707 24.5002 20.663 24.5518 21.0478 24.5518C21.9284 24.5518 22.8016 24.2862 23.5416 23.7772C23.8672 23.5559 24.2077 23.3493 24.5629 23.1649C25.8801 22.4862 26.7755 21.1951 26.9235 19.7197C27.0715 18.2516 26.4721 16.7982 25.3177 15.8687C24.3409 15.0867 23.549 14.1129 22.9718 12.9841C20.7222 8.61675 22.4538 3.23866 26.8347 0.988565C28.0928 0.346736 29.5062 0 30.9123 0C34.2793 0 37.3282 1.85172 38.8675 4.83954C38.9267 4.96496 38.9933 5.083 39.0451 5.20841C39.5853 6.39616 40.6287 7.28145 41.8868 7.6208C42.2642 7.72409 42.649 7.77573 43.0338 7.77573C43.9292 7.77573 44.8099 7.50277 45.5573 6.97898C45.8607 6.76503 46.1863 6.56584 46.5415 6.38879C47.7995 5.74696 49.213 5.40022 50.619 5.40022C53.9861 5.40022 57.035 7.25194 58.5742 10.2398C60.8239 14.6072 59.0923 19.9852 54.7113 22.2353C53.4533 22.8772 52.0399 23.2239 50.6338 23.2239C47.2667 23.2239 44.2178 21.3722 42.6786 18.3844C42.6194 18.2663 42.5528 18.1335 42.4936 18.0007C41.9534 16.8277 40.9173 15.9498 39.6667 15.6031C39.2819 15.4998 38.8971 15.4482 38.5049 15.4482C37.6242 15.4482 36.751 15.7138 36.011 16.2228C35.6928 16.4441 35.345 16.6507 34.9972 16.8277C33.6799 17.5065 32.7919 18.8049 32.6365 20.273C32.4885 21.7411 33.0879 23.1944 34.2423 24.1166C35.2192 24.8986 36.011 25.8724 36.5882 27.0011C38.8379 31.3685 37.1062 36.7466 32.7253 38.9893C31.4673 39.6311 30.0538 39.9779 28.6478 39.9779L28.6552 40Z" fill="white"/>
<path d="M85.4786 35.224C83.9213 35.224 82.5133 34.9573 81.2546 34.424C80.0173 33.8907 79.0359 33.1227 78.3106 32.12C77.5853 31.1173 77.2119 29.9333 77.1906 28.568H81.9906C82.0546 29.4853 82.3746 30.2107 82.9506 30.744C83.5479 31.2773 84.3586 31.544 85.3826 31.544C86.4279 31.544 87.2493 31.2987 87.8466 30.808C88.4439 30.296 88.7426 29.6347 88.7426 28.824C88.7426 28.1627 88.5399 27.6187 88.1346 27.192C87.7293 26.7653 87.2173 26.4347 86.5986 26.2C86.0013 25.944 85.1693 25.6667 84.1026 25.368C82.6519 24.9413 81.4679 24.5253 80.5506 24.12C79.6546 23.6933 78.8759 23.064 78.2146 22.232C77.5746 21.3787 77.2546 20.248 77.2546 18.84C77.2546 17.5173 77.5853 16.3653 78.2466 15.384C78.9079 14.4027 79.8359 13.656 81.0306 13.144C82.2253 12.6107 83.5906 12.344 85.1266 12.344C87.4306 12.344 89.2973 12.9093 90.7266 14.04C92.1773 15.1493 92.9773 16.7067 93.1266 18.712H88.1986C88.1559 17.944 87.8253 17.3147 87.2066 16.824C86.6093 16.312 85.8093 16.056 84.8066 16.056C83.9319 16.056 83.2279 16.28 82.6946 16.728C82.1826 17.176 81.9266 17.8267 81.9266 18.68C81.9266 19.2773 82.1186 19.7787 82.5026 20.184C82.9079 20.568 83.3986 20.888 83.9746 21.144C84.5719 21.3787 85.4039 21.656 86.4706 21.976C87.9213 22.4027 89.1053 22.8293 90.0226 23.256C90.9399 23.6827 91.7293 24.3227 92.3906 25.176C93.0519 26.0293 93.3826 27.1493 93.3826 28.536C93.3826 29.7307 93.0733 30.84 92.4546 31.864C91.8359 32.888 90.9293 33.7093 89.7346 34.328C88.5399 34.9253 87.1213 35.224 85.4786 35.224ZM102.483 20.952V29.528C102.483 30.1253 102.621 30.5627 102.899 30.84C103.197 31.096 103.688 31.224 104.371 31.224H106.451V35H103.635C99.8586 35 97.9706 33.1653 97.9706 29.496V20.952H95.8586V17.272H97.9706V12.888H102.483V17.272H106.451V20.952H102.483ZM126.153 25.752C126.153 26.392 126.11 26.968 126.025 27.48H113.065C113.172 28.76 113.62 29.7627 114.409 30.488C115.198 31.2133 116.169 31.576 117.321 31.576C118.985 31.576 120.169 30.8613 120.873 29.432H125.705C125.193 31.1387 124.212 32.5467 122.761 33.656C121.31 34.744 119.529 35.288 117.417 35.288C115.71 35.288 114.174 34.9147 112.809 34.168C111.465 33.4 110.409 32.3227 109.641 30.936C108.894 29.5493 108.521 27.9493 108.521 26.136C108.521 24.3013 108.894 22.6907 109.641 21.304C110.388 19.9173 111.433 18.8507 112.777 18.104C114.121 17.3573 115.668 16.984 117.417 16.984C119.102 16.984 120.606 17.3467 121.929 18.072C123.273 18.7973 124.308 19.832 125.033 21.176C125.78 22.4987 126.153 24.024 126.153 25.752ZM121.513 24.472C121.492 23.32 121.076 22.4027 120.265 21.72C119.454 21.016 118.462 20.664 117.289 20.664C116.18 20.664 115.241 21.0053 114.473 21.688C113.726 22.3493 113.268 23.2773 113.097 24.472H121.513ZM128.271 26.072C128.271 24.28 128.623 22.6907 129.327 21.304C130.052 19.9173 131.023 18.8507 132.239 18.104C133.476 17.3573 134.852 16.984 136.367 16.984C137.69 16.984 138.842 17.2507 139.823 17.784C140.826 18.3173 141.626 18.9893 142.223 19.8V17.272H146.735V35H142.223V32.408C141.647 33.24 140.847 33.9333 139.823 34.488C138.82 35.0213 137.658 35.288 136.335 35.288C134.842 35.288 133.476 34.904 132.239 34.136C131.023 33.368 130.052 32.2907 129.327 30.904C128.623 29.496 128.271 27.8853 128.271 26.072ZM142.223 26.136C142.223 25.048 142.01 24.12 141.583 23.352C141.156 22.5627 140.58 21.9653 139.855 21.56C139.13 21.1333 138.351 20.92 137.519 20.92C136.687 20.92 135.919 21.1227 135.215 21.528C134.511 21.9333 133.935 22.5307 133.487 23.32C133.06 24.088 132.847 25.0053 132.847 26.072C132.847 27.1387 133.06 28.0773 133.487 28.888C133.935 29.6773 134.511 30.2853 135.215 30.712C135.94 31.1387 136.708 31.352 137.519 31.352C138.351 31.352 139.13 31.1493 139.855 30.744C140.58 30.3173 141.156 29.72 141.583 28.952C142.01 28.1627 142.223 27.224 142.223 26.136ZM173.126 17.016C175.302 17.016 177.052 17.688 178.374 19.032C179.718 20.3547 180.39 22.2107 180.39 24.6V35H175.91V25.208C175.91 23.8213 175.558 22.7653 174.854 22.04C174.15 21.2933 173.19 20.92 171.974 20.92C170.758 20.92 169.788 21.2933 169.062 22.04C168.358 22.7653 168.006 23.8213 168.006 25.208V35H163.526V25.208C163.526 23.8213 163.174 22.7653 162.47 22.04C161.766 21.2933 160.806 20.92 159.59 20.92C158.353 20.92 157.372 21.2933 156.646 22.04C155.942 22.7653 155.59 23.8213 155.59 25.208V35H151.11V17.272H155.59V19.416C156.166 18.6693 156.902 18.0827 157.798 17.656C158.716 17.2293 159.718 17.016 160.806 17.016C162.193 17.016 163.43 17.3147 164.518 17.912C165.606 18.488 166.449 19.32 167.046 20.408C167.622 19.384 168.454 18.5627 169.542 17.944C170.652 17.3253 171.846 17.016 173.126 17.016Z" fill="white"/>
</svg>
